<mxfile host="65bd71144e">
    <diagram name="Page-1" id="5tjP--U7AVyDHl2R53nk">
        <mxGraphModel dx="959" dy="1135" grid="1" gridSize="10" guides="1" tooltips="1" connect="1" arrows="1" fold="1" page="1" pageScale="1" pageWidth="827" pageHeight="1169" math="0" shadow="0">
            <root>
                <mxCell id="0"/>
                <mxCell id="1" parent="0"/>
                <mxCell id="K9J2gantzL0C6YfL38st-1" value="" style="dashed=0;outlineConnect=0;html=1;align=center;labelPosition=center;verticalLabelPosition=bottom;verticalAlign=top;shape=mxgraph.weblogos.github" parent="1" vertex="1">
                    <mxGeometry x="160" y="160" width="50" height="50" as="geometry"/>
                </mxCell>
                <mxCell id="K9J2gantzL0C6YfL38st-2" value="" style="aspect=fixed;html=1;points=[];align=center;image;fontSize=12;image=img/lib/azure2/general/Code.svg;" parent="1" vertex="1">
                    <mxGeometry x="40" y="160" width="61.53" height="50" as="geometry"/>
                </mxCell>
                <mxCell id="K9J2gantzL0C6YfL38st-30" style="edgeStyle=orthogonalEdgeStyle;rounded=0;orthogonalLoop=1;jettySize=auto;html=1;exitX=1;exitY=0.5;exitDx=0;exitDy=0;exitPerimeter=0;entryX=0;entryY=0.5;entryDx=0;entryDy=0;entryPerimeter=0;" parent="1" source="K9J2gantzL0C6YfL38st-3" target="K9J2gantzL0C6YfL38st-6" edge="1">
                    <mxGeometry relative="1" as="geometry"/>
                </mxCell>
                <mxCell id="K9J2gantzL0C6YfL38st-3" value="" style="outlineConnect=0;dashed=0;verticalLabelPosition=bottom;verticalAlign=top;align=center;html=1;shape=mxgraph.aws3.cloudformation;fillColor=#759C3E;gradientColor=none;" parent="1" vertex="1">
                    <mxGeometry x="290" y="160" width="50" height="50" as="geometry"/>
                </mxCell>
                <mxCell id="K9J2gantzL0C6YfL38st-4" value="cloudformation" style="text;html=1;align=center;verticalAlign=middle;resizable=0;points=[];autosize=1;strokeColor=none;fillColor=none;" parent="1" vertex="1">
                    <mxGeometry x="265" y="210" width="100" height="30" as="geometry"/>
                </mxCell>
                <mxCell id="K9J2gantzL0C6YfL38st-5" value="" style="sketch=0;pointerEvents=1;shadow=0;dashed=0;html=1;strokeColor=none;fillColor=#DF8C42;labelPosition=center;verticalLabelPosition=bottom;verticalAlign=top;align=center;outlineConnect=0;shape=mxgraph.veeam2.aws_s3;" parent="1" vertex="1">
                    <mxGeometry x="454" y="260" width="50" height="50" as="geometry"/>
                </mxCell>
                <mxCell id="K9J2gantzL0C6YfL38st-22" style="edgeStyle=orthogonalEdgeStyle;rounded=0;orthogonalLoop=1;jettySize=auto;html=1;exitX=0.5;exitY=0;exitDx=0;exitDy=0;exitPerimeter=0;entryX=0;entryY=0.5;entryDx=0;entryDy=0;entryPerimeter=0;" parent="1" source="K9J2gantzL0C6YfL38st-6" target="K9J2gantzL0C6YfL38st-18" edge="1">
                    <mxGeometry relative="1" as="geometry"/>
                </mxCell>
                <mxCell id="K9J2gantzL0C6YfL38st-26" style="edgeStyle=orthogonalEdgeStyle;rounded=0;orthogonalLoop=1;jettySize=auto;html=1;exitX=1;exitY=0.5;exitDx=0;exitDy=0;exitPerimeter=0;entryX=0;entryY=0.5;entryDx=0;entryDy=0;entryPerimeter=0;" parent="1" source="K9J2gantzL0C6YfL38st-6" target="K9J2gantzL0C6YfL38st-25" edge="1">
                    <mxGeometry relative="1" as="geometry"/>
                </mxCell>
                <mxCell id="K9J2gantzL0C6YfL38st-6" value="" style="sketch=0;points=[[0,0,0],[0.25,0,0],[0.5,0,0],[0.75,0,0],[1,0,0],[0,1,0],[0.25,1,0],[0.5,1,0],[0.75,1,0],[1,1,0],[0,0.25,0],[0,0.5,0],[0,0.75,0],[1,0.25,0],[1,0.5,0],[1,0.75,0]];points=[[0,0,0],[0.25,0,0],[0.5,0,0],[0.75,0,0],[1,0,0],[0,1,0],[0.25,1,0],[0.5,1,0],[0.75,1,0],[1,1,0],[0,0.25,0],[0,0.5,0],[0,0.75,0],[1,0.25,0],[1,0.5,0],[1,0.75,0]];outlineConnect=0;fontColor=#232F3E;gradientColor=#F34482;gradientDirection=north;fillColor=#BC1356;strokeColor=#ffffff;dashed=0;verticalLabelPosition=bottom;verticalAlign=top;align=center;html=1;fontSize=12;fontStyle=0;aspect=fixed;shape=mxgraph.aws4.resourceIcon;resIcon=mxgraph.aws4.cloudwatch_2;" parent="1" vertex="1">
                    <mxGeometry x="454" y="120" width="50" height="50" as="geometry"/>
                </mxCell>
                <mxCell id="K9J2gantzL0C6YfL38st-12" value="" style="endArrow=classic;html=1;rounded=0;" parent="1" source="K9J2gantzL0C6YfL38st-3" target="K9J2gantzL0C6YfL38st-5" edge="1">
                    <mxGeometry width="50" height="50" relative="1" as="geometry">
                        <mxPoint x="390" y="430" as="sourcePoint"/>
                        <mxPoint x="440" y="380" as="targetPoint"/>
                        <Array as="points">
                            <mxPoint x="400" y="185"/>
                            <mxPoint x="400" y="285"/>
                        </Array>
                    </mxGeometry>
                </mxCell>
                <mxCell id="K9J2gantzL0C6YfL38st-13" value="test scripts" style="text;html=1;align=center;verticalAlign=middle;resizable=0;points=[];autosize=1;strokeColor=none;fillColor=none;" parent="1" vertex="1">
                    <mxGeometry x="350" y="280" width="80" height="30" as="geometry"/>
                </mxCell>
                <mxCell id="K9J2gantzL0C6YfL38st-14" value="" style="endArrow=classic;html=1;rounded=0;" parent="1" edge="1">
                    <mxGeometry width="50" height="50" relative="1" as="geometry">
                        <mxPoint x="460" y="250" as="sourcePoint"/>
                        <mxPoint x="460" y="180" as="targetPoint"/>
                    </mxGeometry>
                </mxCell>
                <mxCell id="K9J2gantzL0C6YfL38st-15" value="test&lt;br&gt;scripts" style="text;html=1;align=center;verticalAlign=middle;resizable=0;points=[];autosize=1;strokeColor=none;fillColor=none;" parent="1" vertex="1">
                    <mxGeometry x="409" y="200" width="60" height="40" as="geometry"/>
                </mxCell>
                <mxCell id="K9J2gantzL0C6YfL38st-16" value="" style="endArrow=classic;html=1;rounded=0;" parent="1" edge="1">
                    <mxGeometry width="50" height="50" relative="1" as="geometry">
                        <mxPoint x="491" y="250" as="sourcePoint"/>
                        <mxPoint x="491" y="250" as="targetPoint"/>
                        <Array as="points">
                            <mxPoint x="490" y="170"/>
                        </Array>
                    </mxGeometry>
                </mxCell>
                <mxCell id="K9J2gantzL0C6YfL38st-17" value="results" style="text;html=1;align=center;verticalAlign=middle;resizable=0;points=[];autosize=1;strokeColor=none;fillColor=none;" parent="1" vertex="1">
                    <mxGeometry x="490" y="200" width="60" height="30" as="geometry"/>
                </mxCell>
                <mxCell id="K9J2gantzL0C6YfL38st-18" value="" style="sketch=0;points=[[0,0,0],[0.25,0,0],[0.5,0,0],[0.75,0,0],[1,0,0],[0,1,0],[0.25,1,0],[0.5,1,0],[0.75,1,0],[1,1,0],[0,0.25,0],[0,0.5,0],[0,0.75,0],[1,0.25,0],[1,0.5,0],[1,0.75,0]];outlineConnect=0;fontColor=#232F3E;gradientColor=#F78E04;gradientDirection=north;fillColor=#D05C17;strokeColor=#ffffff;dashed=0;verticalLabelPosition=bottom;verticalAlign=top;align=center;html=1;fontSize=12;fontStyle=0;aspect=fixed;shape=mxgraph.aws4.resourceIcon;resIcon=mxgraph.aws4.ecs;" parent="1" vertex="1">
                    <mxGeometry x="610" y="50" width="50" height="50" as="geometry"/>
                </mxCell>
                <mxCell id="K9J2gantzL0C6YfL38st-20" value="run synthetic&lt;br&gt;canary tests" style="text;html=1;align=center;verticalAlign=middle;resizable=0;points=[];autosize=1;strokeColor=none;fillColor=none;" parent="1" vertex="1">
                    <mxGeometry x="490" y="40" width="90" height="40" as="geometry"/>
                </mxCell>
                <mxCell id="K9J2gantzL0C6YfL38st-21" value="" style="shape=image;html=1;verticalAlign=top;verticalLabelPosition=bottom;labelBackgroundColor=#ffffff;imageAspect=0;aspect=fixed;image=https://cdn2.iconfinder.com/data/icons/social-media-2285/512/1_Slack_colored_svg-128.png" parent="1" vertex="1">
                    <mxGeometry x="740" y="120" width="50" height="50" as="geometry"/>
                </mxCell>
                <mxCell id="K9J2gantzL0C6YfL38st-28" style="edgeStyle=orthogonalEdgeStyle;rounded=0;orthogonalLoop=1;jettySize=auto;html=1;exitX=1;exitY=0.5;exitDx=0;exitDy=0;exitPerimeter=0;" parent="1" source="K9J2gantzL0C6YfL38st-25" target="K9J2gantzL0C6YfL38st-21" edge="1">
                    <mxGeometry relative="1" as="geometry"/>
                </mxCell>
                <mxCell id="K9J2gantzL0C6YfL38st-25" value="" style="sketch=0;points=[[0,0,0],[0.25,0,0],[0.5,0,0],[0.75,0,0],[1,0,0],[0,1,0],[0.25,1,0],[0.5,1,0],[0.75,1,0],[1,1,0],[0,0.25,0],[0,0.5,0],[0,0.75,0],[1,0.25,0],[1,0.5,0],[1,0.75,0]];outlineConnect=0;fontColor=#232F3E;gradientColor=#FF4F8B;gradientDirection=north;fillColor=#BC1356;strokeColor=#ffffff;dashed=0;verticalLabelPosition=bottom;verticalAlign=top;align=center;html=1;fontSize=12;fontStyle=0;aspect=fixed;shape=mxgraph.aws4.resourceIcon;resIcon=mxgraph.aws4.sns;" parent="1" vertex="1">
                    <mxGeometry x="610" y="120" width="50" height="50" as="geometry"/>
                </mxCell>
                <mxCell id="K9J2gantzL0C6YfL38st-27" value="failure alarm&lt;br&gt;posts to SNS" style="text;html=1;align=center;verticalAlign=middle;resizable=0;points=[];autosize=1;strokeColor=none;fillColor=none;" parent="1" vertex="1">
                    <mxGeometry x="510" y="110" width="90" height="40" as="geometry"/>
                </mxCell>
                <mxCell id="K9J2gantzL0C6YfL38st-29" value="SNS sends message to&lt;br&gt;#govuk-accounts-notifications" style="text;html=1;align=center;verticalAlign=middle;resizable=0;points=[];autosize=1;strokeColor=none;fillColor=none;" parent="1" vertex="1">
                    <mxGeometry x="620" y="176.88" width="180" height="40" as="geometry"/>
                </mxCell>
                <mxCell id="K9J2gantzL0C6YfL38st-33" value="- CloudFormation template (yaml)&lt;br&gt;- test scripts (java script)&lt;br&gt;- github actoins&amp;nbsp;&lt;br&gt;- sam template&lt;br&gt;- documentation" style="text;html=1;align=left;verticalAlign=middle;resizable=0;points=[];autosize=1;strokeColor=none;fillColor=none;" parent="1" vertex="1">
                    <mxGeometry x="20" y="220" width="200" height="90" as="geometry"/>
                </mxCell>
                <mxCell id="2" value="create canary test,&lt;br&gt;cloudwatch alarm, &lt;br&gt;sns topic, arn" style="text;html=1;align=center;verticalAlign=middle;resizable=0;points=[];autosize=1;strokeColor=none;fillColor=none;" vertex="1" parent="1">
                    <mxGeometry x="330" y="85" width="120" height="60" as="geometry"/>
                </mxCell>
            </root>
        </mxGraphModel>
    </diagram>
</mxfile>